<svg width="244" height="84" viewBox="0 0 244 84" fill="none" xmlns="http://www.w3.org/2000/svg">
<path d="M15.6518 83.3687C15.022 83.3687 14.4074 83.3603 13.7825 83.3457C12.4881 83.3281 11.1966 83.2105 9.91882 82.9939C8.72731 82.7798 7.57306 82.3815 6.49415 81.8122C5.42512 81.2476 4.45009 80.5073 3.60639 79.6197C2.75048 78.7424 2.0379 77.725 1.49688 76.6077C0.949899 75.4832 0.571356 74.2778 0.374437 73.0336C0.161781 71.6966 0.0467258 70.3448 0.0302625 68.9897C0.017157 68.5348 0 67.0204 0 67.0204V17.1982C0 17.1982 0.0182733 15.707 0.0303659 15.2689C0.0461293 13.916 0.160516 12.5662 0.372535 11.2313C0.569818 9.9837 0.948654 8.77484 1.49593 7.6466C2.03496 6.53008 2.74359 5.51191 3.59434 4.63157C4.44413 3.74286 5.42229 2.99875 6.49313 2.42636C7.56957 1.85888 8.72164 1.46342 9.91073 1.25322C11.1928 1.03445 12.4887 0.916173 13.7876 0.899381L15.6528 0.873047H228.087L229.975 0.900438C231.262 0.916396 232.546 1.03362 233.816 1.2511C235.017 1.46394 236.181 1.86217 237.27 2.43268C239.415 3.58621 241.161 5.4112 242.262 7.65186C242.801 8.77231 243.174 9.97131 243.368 11.2082C243.583 12.554 243.703 13.9143 243.728 15.2784C243.734 15.8892 243.734 16.5453 243.734 17.1982C243.75 18.007 243.75 18.7768 243.75 19.5529V64.6908C243.75 65.4744 243.75 66.239 243.734 67.0098C243.734 67.7112 243.734 68.3537 243.726 69.0149C243.701 70.3546 243.583 71.6907 243.372 73.0125C243.179 74.2657 242.803 75.4804 242.256 76.6142C241.711 77.7194 241.003 78.728 240.157 79.6028C239.312 80.4953 238.336 81.2399 237.264 81.8081C236.178 82.3818 235.016 82.7815 233.816 82.9939C232.538 83.2116 231.247 83.3292 229.952 83.3457C229.347 83.3603 228.713 83.3687 228.097 83.3687L225.856 83.373L15.6518 83.3687Z" fill="#99519D"/>
<path d="M99.8689 43.3257C103.544 43.3259 105.966 46.2312 105.967 50.7183C105.967 55.218 103.558 58.1097 99.9236 58.1099C98.045 58.2081 96.2748 57.2242 95.3669 55.5767H95.2986V62.7485H92.3259V43.4771H95.2029V45.8862H95.2576C96.2057 44.2488 97.9778 43.2647 99.8689 43.3257ZM115.806 43.3257C119.482 43.3257 121.904 46.2311 121.904 50.7183C121.904 55.2182 119.496 58.1098 115.861 58.1099C113.982 58.2081 112.212 57.2243 111.304 55.5767H111.236V62.7485H108.263V43.4771H111.14V45.8862H111.195C112.143 44.2488 113.915 43.2647 115.806 43.3257ZM137.145 37.7651C141.342 37.7651 144.219 40.1188 144.316 43.5454H141.316C141.136 41.5636 139.498 40.3677 137.103 40.3677C134.709 40.3677 133.07 41.5777 133.07 43.3394C133.07 44.7434 134.117 45.5701 136.677 46.2026L138.865 46.7397C142.94 47.7034 144.633 49.3406 144.634 52.2456C144.634 55.9614 141.673 58.2886 136.966 58.2886C132.561 58.2884 129.587 56.0157 129.395 52.4233L132.438 52.4243C132.659 54.3937 134.572 55.687 137.186 55.687C139.692 55.687 141.494 54.3935 141.494 52.6177C141.494 51.076 140.407 50.1526 137.833 49.52L135.259 48.8999C131.612 48.019 129.919 46.3131 129.919 43.5454C129.919 40.1189 132.905 37.7653 137.145 37.7651ZM162.264 43.2993C166.463 43.2993 169.133 46.1623 169.134 50.7183C169.134 55.2869 166.477 58.1382 162.264 58.1382C158.053 58.1381 155.397 55.2868 155.397 50.7183C155.397 46.1624 158.08 43.2994 162.264 43.2993ZM186.334 43.2993C190.34 43.2993 192.86 46.0515 192.86 50.4419V51.4604H182.633V51.6401C182.537 52.7181 182.909 53.7851 183.654 54.5698C184.399 55.3546 185.447 55.7815 186.528 55.7417C187.97 55.8767 189.33 55.0489 189.872 53.7056H192.694C192.294 56.334 189.734 58.1382 186.459 58.1382C182.246 58.1381 179.632 55.3155 179.632 50.7876C179.632 46.2456 182.26 43.2994 186.334 43.2993ZM151.049 43.4771H153.802V45.8306H151.049V53.814C151.049 55.0541 151.6 55.6323 152.81 55.6323C153.137 55.6266 153.463 55.6031 153.788 55.563V57.9028C153.244 58.0045 152.691 58.0508 152.137 58.0405C149.206 58.0405 148.062 56.9395 148.062 54.1313V45.8306H145.957V43.4771H148.062V40.0503H151.049V43.4771ZM177.971 43.3257C178.314 43.3245 178.656 43.3621 178.99 43.437V46.2173C178.558 46.0851 178.106 46.0244 177.654 46.0376C176.78 46.0022 175.935 46.3503 175.34 46.9907C174.744 47.6312 174.459 48.4998 174.557 49.3687V57.9585H171.585V43.4771H174.42V45.9419H174.488C174.883 44.3553 176.338 43.2633 177.971 43.3257ZM90.4792 57.9575H87.2185L85.4021 52.5894H77.8308L76.0134 57.9575H72.8064L79.9773 38.0952H83.3083L90.4792 57.9575ZM162.264 45.7485C159.856 45.7487 158.426 47.6072 158.426 50.7183C158.426 53.856 159.856 55.6869 162.264 55.687C164.673 55.687 166.105 53.8562 166.105 50.7183L166.101 50.4292C166.015 47.4796 164.598 45.7485 162.264 45.7485ZM99.0847 45.8589C96.8137 45.8589 95.286 47.8272 95.2859 50.7183C95.2859 53.636 96.8137 55.5903 99.0847 55.5903C101.396 55.5901 102.911 53.6764 102.911 50.7183C102.911 47.7868 101.396 45.8591 99.0847 45.8589ZM115.022 45.8589C112.751 45.859 111.223 47.8273 111.223 50.7183C111.223 53.6359 112.751 55.5902 115.022 55.5903C117.334 55.5903 118.849 53.6766 118.849 50.7183L118.844 50.4468C118.753 47.6683 117.262 45.8589 115.022 45.8589ZM78.615 50.1118H84.616L81.658 41.3999H81.575L78.615 50.1118ZM186.334 45.7085C185.356 45.7027 184.417 46.0877 183.724 46.7778C183.032 47.4679 182.644 48.4058 182.646 49.3833H189.885C189.939 48.4147 189.587 47.4676 188.913 46.77C188.239 46.0724 187.304 45.6877 186.334 45.7085Z" fill="white"/>
<path d="M199.014 20.3735C201.319 20.3736 202.71 21.9489 202.71 24.5503V25.1206H196.86V25.2124C196.808 25.827 197.018 26.4354 197.438 26.8872C197.858 27.3389 198.449 27.5922 199.066 27.5854C199.866 27.6814 200.644 27.2848 201.037 26.5815H202.611C202.152 28.144 200.64 29.1536 199.021 28.978C197.917 29.0071 196.855 28.5494 196.118 27.7261C195.381 26.9027 195.044 25.7963 195.195 24.7017C195.048 23.6041 195.384 22.4968 196.117 21.6665C196.85 20.8361 197.907 20.3641 199.014 20.3735ZM88.3981 20.9634C89.6655 20.177 91.2694 20.1769 92.5367 20.9634C93.8042 21.7499 94.5157 23.1875 94.3737 24.6724C94.5183 26.1587 93.8071 27.5981 92.5387 28.3862C91.2702 29.1744 89.6647 29.1743 88.3961 28.3862C87.1276 27.5981 86.4156 26.1587 86.5602 24.6724C86.4181 23.1875 87.1306 21.7499 88.3981 20.9634ZM124.341 20.9634C125.609 20.1771 127.213 20.177 128.48 20.9634C129.748 21.7499 130.46 23.1874 130.318 24.6724C130.462 26.1588 129.751 27.5981 128.482 28.3862C127.213 29.1744 125.607 29.1744 124.339 28.3862C123.07 27.598 122.359 26.1586 122.504 24.6724C122.362 23.1874 123.074 21.7499 124.341 20.9634ZM157.478 20.9634C158.746 20.177 160.349 20.177 161.617 20.9634C162.884 21.7499 163.596 23.1875 163.454 24.6724C163.598 26.1587 162.887 27.5981 161.619 28.3862C160.35 29.1744 158.745 29.1744 157.476 28.3862C156.208 27.5981 155.497 26.1587 155.641 24.6724C155.499 23.1875 156.211 21.7499 157.478 20.9634ZM135.744 20.3735C137.82 20.3737 138.992 21.4079 138.992 23.1577V28.8179H137.418V27.6538H137.289C136.754 28.5039 135.803 29.0009 134.8 28.9546C134.097 29.0277 133.396 28.7998 132.87 28.3276C132.344 27.8553 132.041 27.1821 132.039 26.4751L132.051 26.2026C132.181 24.8792 133.272 24.117 135.12 24.0024L137.364 23.8726V23.1577C137.364 22.2828 136.785 21.7886 135.668 21.7886C134.755 21.7886 134.122 22.1238 133.941 22.7095H132.359C132.526 21.2866 133.865 20.3735 135.744 20.3735ZM148.877 28.8188H147.31V27.5093H147.18C146.649 28.4373 145.647 28.994 144.579 28.9546C142.472 28.9545 141.14 27.2961 141.14 24.6724C141.14 22.0551 142.486 20.3972 144.579 20.397C145.636 20.3483 146.626 20.9143 147.12 21.8501H147.242V17.3003H148.877V28.8188ZM181.922 20.5718H183.716V21.9487H181.922V26.2085C181.922 27.076 182.279 27.4564 183.092 27.4565C183.301 27.4559 183.51 27.4429 183.716 27.4185V28.7798C183.423 28.8323 183.125 28.8607 182.827 28.8638C181.009 28.8637 180.285 28.2242 180.285 26.6274V21.9487H178.969V20.5718H180.285V18.4712H181.922V20.5718ZM79.4694 17.8413C80.9208 17.7372 82.3428 18.2896 83.3434 19.3462C84.3436 20.4027 84.8173 21.852 84.6344 23.2954C84.6344 26.8024 82.7392 28.8188 79.4694 28.8188H75.5045V17.8413H79.4694ZM120.231 28.8188H118.595V17.3003H120.231V28.8188ZM187.57 21.8657H187.699C188.144 20.8883 189.155 20.2945 190.225 20.3813C191.037 20.3372 191.827 20.6572 192.379 21.2544C192.93 21.8516 193.187 22.6644 193.079 23.4702V28.8188H191.442V23.8735C191.442 22.5504 190.826 21.8795 189.671 21.8794C189.102 21.8328 188.541 22.04 188.139 22.4448C187.737 22.8497 187.534 23.4116 187.585 23.98V28.8179H185.95V17.3003H187.57V21.8657ZM98.6969 26.855H98.819L100.522 20.5337H102.09L103.794 26.855H103.922L105.4 20.5337H107.035L104.76 28.8179H103.064L101.352 22.7173H101.222L99.5172 28.8179H97.8375L95.5543 20.5337H97.2125L98.6969 26.855ZM113.124 20.3735C113.94 20.3123 114.74 20.6258 115.297 21.2251C115.855 21.8244 116.111 22.6447 115.991 23.4546V28.8179H114.356V23.8657C114.356 22.5344 113.777 21.8726 112.568 21.8726C112.014 21.8468 111.477 22.0638 111.096 22.4673C110.716 22.8707 110.532 23.42 110.59 23.9712V28.8179H108.955V20.5337H110.529V21.8501H110.651C111.076 20.8812 112.069 20.2878 113.124 20.3735ZM169.816 20.3735C170.633 20.3122 171.433 20.6257 171.991 21.2251C172.548 21.8244 172.803 22.6448 172.683 23.4546V28.8179H171.048V23.8657C171.048 22.5344 170.469 21.8726 169.26 21.8726C168.707 21.8469 168.17 22.064 167.79 22.4673C167.41 22.8707 167.224 23.42 167.283 23.9712V28.8179H165.648V20.5337H167.221V21.8501H167.343C167.768 20.8812 168.762 20.2878 169.816 20.3735ZM135.34 25.2046C134.2 25.281 133.682 25.6688 133.682 26.3989C133.682 27.1444 134.329 27.5785 135.218 27.5786C135.745 27.6319 136.271 27.4688 136.675 27.1274C137.08 26.7862 137.328 26.2958 137.364 25.7681V25.0747L135.34 25.2046ZM90.4703 21.8267C89.0493 21.8267 88.2497 22.8768 88.2496 24.6724C88.2496 26.4824 89.0493 27.5249 90.4703 27.5249C91.8858 27.5247 92.692 26.4751 92.692 24.6724L92.6832 24.3442C92.5893 22.7497 91.7972 21.8268 90.4703 21.8267ZM126.413 21.8267C124.992 21.8267 124.192 22.8768 124.192 24.6724C124.192 26.4824 124.992 27.5249 126.413 27.5249C127.828 27.5249 128.635 26.4753 128.635 24.6724L128.626 24.3442C128.532 22.7495 127.74 21.8267 126.413 21.8267ZM159.55 21.8267C158.129 21.8267 157.33 22.8768 157.33 24.6724C157.33 26.4824 158.129 27.5249 159.55 27.5249C160.966 27.5247 161.772 26.4751 161.772 24.6724C161.772 22.8769 160.966 21.8268 159.55 21.8267ZM145.043 21.8647C143.666 21.8647 142.829 22.9297 142.829 24.6724L142.839 24.9937C142.935 26.5575 143.744 27.4868 145.043 27.4868C146.421 27.4868 147.272 26.4138 147.272 24.6792C147.272 22.9529 146.412 21.8647 145.043 21.8647ZM79.2789 19.3921H77.2096V27.2661H79.2789C80.3162 27.3281 81.3257 26.9187 82.028 26.1528C82.7302 25.387 83.0505 24.3459 82.899 23.3179C83.0395 22.2941 82.7148 21.2611 82.0143 20.5015C81.3138 19.7419 80.3106 19.3349 79.2789 19.3921ZM199.005 21.7661C198.434 21.7589 197.884 21.9823 197.48 22.3862C197.076 22.7902 196.853 23.3405 196.86 23.9116H201.045C201.086 23.3495 200.888 22.7958 200.5 22.3872C200.111 21.9788 199.569 21.7533 199.005 21.7661Z" fill="white"/>
<path d="M35.9603 32.7979C37.501 32.7979 40.4328 30.6709 43.4564 30.9883C46.3302 31.0782 48.9937 32.5187 50.6429 34.874C48.0405 36.4739 46.4391 39.2951 46.3997 42.3496C46.4034 45.8055 48.4727 48.9243 51.6556 50.2705C51.0434 52.2591 50.1203 54.1385 48.9212 55.8389C47.3109 58.2478 45.6225 60.601 42.9427 60.6445C40.3388 60.7046 39.4635 59.1123 36.4769 59.1123C33.4625 59.1124 32.5297 60.6014 30.0325 60.7051C27.4803 60.7996 25.5296 58.1334 23.8607 55.7471C20.525 50.8736 17.9273 42.0133 21.4095 35.9844C23.0447 33.0459 26.1022 31.1809 29.4632 31.0723C32.0175 31.0197 34.3897 32.7976 35.9603 32.7979ZM43.4876 21.498C43.6619 23.7744 42.942 26.0291 41.4808 27.7832C40.0631 29.5464 37.9149 30.5624 35.6527 30.5391C35.5088 28.3283 36.2499 26.1506 37.7122 24.4863C39.1932 22.7995 41.2552 21.7325 43.4876 21.498Z" fill="white"/>
</svg>
