<svg width="113" height="91" viewBox="0 0 113 91" fill="none" xmlns="http://www.w3.org/2000/svg">
<path d="M109.319 0H98.3698H93.9872V2.13571H97.4276L78.3373 45.407C76.2386 44.1862 74.033 43.131 71.8101 42.2281C65.3582 39.6072 58.5359 37.9291 52.1 35.3029L36.4641 0H31.9458H21.9266H16.6146V2.13571H21.9266V3.4287C11.7789 7.75063 3.36973 19.1076 0.997985 28.7194C-2.45397 42.6868 3.26159 58.4765 14.8574 67.0006C14.8996 67.0335 14.9419 67.0616 14.9842 67.0899C17.3296 68.8001 19.8762 70.2663 21.9267 72.3111V88.1182H16.6147V90.2539H21.9267H27.8629H31.8397H31.9459V90.2473C31.986 90.2492 32.0239 90.2522 32.0642 90.2539C35.6017 89.0335 38.5615 86.0691 39.8195 82.5014C41.4467 77.8866 40.4031 72.55 37.5886 68.5471C36.041 66.3459 34.0049 64.5369 31.7012 63.1414C31.5634 63.0825 31.4263 63.0224 31.2852 62.9695C28.3795 61.8811 25.1648 62.2203 22.0703 62.4457C18.9757 62.6712 12.8879 62.3729 11.2844 61.1596C9.45418 59.7747 8.65722 57.2898 10.3646 54.6989C11.0797 53.6136 12.1661 51.6495 11.9413 50.3694C11.7489 49.2752 10.554 48.693 9.9285 47.7747C9.47385 47.1072 9.9465 45.9034 11.6949 45.0402C11.1059 44.8379 9.46713 43.7349 9.47151 43.0662C9.47764 42.1192 10.4626 41.416 11.0366 40.6627C11.6104 39.9095 12.1968 39.0545 12.1264 38.1101C12.0198 36.6816 10.5389 35.836 9.29242 35.1303C8.04596 34.4245 6.69486 33.2113 7.07427 31.83C11.6443 30.9521 16.1808 28.2918 18.4547 24.2316C20.7286 20.1714 20.3334 14.7482 22.2693 10.5164C23.6821 7.42796 25.9469 4.34539 28.7041 2.13571H30.6595C28.3446 6.45589 27.3494 11.4607 27.8771 16.3343C27.8756 16.3285 27.8734 16.3229 27.8719 16.317C28.7591 29.0914 44.3286 38.8782 54.8716 45.4439C62.7668 50.3606 74.4448 56.6727 79.6323 64.3926C84.0758 71.0056 83.4026 79.599 79.0325 90.2537C85.5045 83.7624 89.4944 78.3153 91.1832 73.2053C92.872 68.0952 92.5278 62.3435 90.2413 57.4715C88.6305 54.0391 86.1659 51.1762 83.2369 48.7795L97.2794 16.9605V65.4188V88.1181H93.9871V90.2538H97.2794H109.318H112.907V65.4188V22.5332V0H109.319Z" fill="url(#paint0_linear_170_3604)"/>
<path d="M69.6287 69.6002L63.0406 54.7255C57.7992 50.7277 52.1679 47.2089 46.9421 43.1747C43.8999 40.8261 40.868 38.2382 38.2615 35.3672L62.118 89.8315H67.0847L76.4004 68.723C75.2362 66.814 73.8868 64.9977 72.4121 63.2915L69.6287 69.6002Z" fill="#99519D"/>
<defs>
<linearGradient id="paint0_linear_170_3604" x1="38.0705" y1="119.539" x2="69.0196" y2="20.96" gradientUnits="userSpaceOnUse">
<stop stop-color="#D3D3D3"/>
<stop offset="1" stop-color="#A863AC"/>
</linearGradient>
</defs>
</svg>
