<svg width="81" height="90" viewBox="0 0 81 90" fill="none" xmlns="http://www.w3.org/2000/svg">
<path d="M47.5625 42.0924L43.6023 33.1508C40.4515 30.7476 37.0664 28.6324 33.9251 26.2073C32.0963 24.7955 30.2738 23.2399 28.7069 21.5141L43.0477 54.254H46.0333L51.6332 41.5651C50.9334 40.4176 50.1222 39.3257 49.2357 38.3001L47.5625 42.0924Z" fill="url(#paint0_linear_149_1400)"/>
<path d="M72.7141 0H66.1326H63.4981V1.28383H65.5662L54.0906 27.2953C52.829 26.5615 51.5031 25.9272 50.1669 25.3844C46.2885 23.8089 42.1874 22.8001 38.3186 21.2215L28.9195 0H26.2034H20.1806H16.9874V1.28383H20.1806V2.06108C14.0806 4.6591 9.02563 11.4861 7.59991 17.264C5.52485 25.6601 8.96062 35.1517 15.9312 40.2758C15.9565 40.2955 15.9819 40.3124 16.0074 40.3294C17.4173 41.3575 18.9481 42.2389 20.1807 43.468V52.9701H16.9875V54.2539H20.1807H23.7491H26.1397H26.2035V54.25C26.2276 54.2511 26.2504 54.2529 26.2746 54.2539C28.4011 53.5203 30.1803 51.7383 30.9365 49.5937C31.9147 46.8196 31.2873 43.6117 29.5955 41.2054C28.6652 39.8822 27.4412 38.7948 26.0564 37.9559C25.9735 37.9205 25.8912 37.8843 25.8063 37.8526C24.0596 37.1983 22.1272 37.4022 20.267 37.5377C18.4068 37.6732 14.7473 37.494 13.7833 36.7646C12.6832 35.9321 12.2041 34.4383 13.2304 32.8809C13.6603 32.2285 14.3134 31.0478 14.1782 30.2783C14.0626 29.6206 13.3443 29.2706 12.9683 28.7186C12.695 28.3174 12.9791 27.5937 14.0301 27.0748C13.676 26.9532 12.6909 26.2902 12.6936 25.8882C12.6973 25.3189 13.2893 24.8962 13.6344 24.4434C13.9793 23.9906 14.3318 23.4766 14.2895 22.9089C14.2254 22.0502 13.3352 21.5419 12.5859 21.1177C11.8366 20.6934 11.0245 19.9642 11.2525 19.1338C13.9997 18.6061 16.7267 17.0069 18.0936 14.5663C19.4605 12.1256 19.2229 8.86551 20.3866 6.32166C21.2359 4.46514 22.5973 2.61212 24.2548 1.28383H25.4302C24.0387 3.8808 23.4404 6.88933 23.7576 9.81899C23.7567 9.81548 23.7554 9.81208 23.7545 9.80857C24.2878 17.4876 33.6471 23.3707 39.9847 27.3175C44.7307 30.2731 51.7507 34.0674 54.869 38.708C57.5401 42.6833 57.1354 47.849 54.5084 54.2538C58.3989 50.3517 60.7973 47.0773 61.8125 44.0055C62.8277 40.9338 62.6208 37.4763 61.2463 34.5476C60.2781 32.4843 58.7965 30.7633 57.0358 29.3226L65.4771 10.1954V39.3249V52.97H63.498V54.2539H65.4771H72.714H74.8714V39.3249V13.5453V0H72.7141Z" fill="url(#paint1_linear_149_1400)"/>
<path d="M0.6 70.5164C0.66 70.0684 0.718 69.6204 0.774 69.1724C0.83 68.7244 0.89 68.2384 0.954 67.7144L1.308 64.8464C1.376 64.3304 1.438 63.8424 1.494 63.3824C1.55 62.9224 1.608 62.4484 1.668 61.9604H3.666C3.858 62.4484 4.04 62.9164 4.212 63.3644C4.388 63.8084 4.562 64.2504 4.734 64.6904L5.754 67.3064H5.886L6.876 64.6964C7.044 64.2524 7.21 63.8124 7.374 63.3764C7.542 62.9404 7.718 62.4684 7.902 61.9604H9.876C9.936 62.4404 9.994 62.9104 10.05 63.3704C10.11 63.8304 10.174 64.3244 10.242 64.8524L10.608 67.7324C10.672 68.2524 10.732 68.7324 10.788 69.1724C10.848 69.6124 10.906 70.0604 10.962 70.5164H9.084C9.012 69.9164 8.942 69.3464 8.874 68.8064C8.806 68.2664 8.744 67.7604 8.688 67.2884L8.436 65.2604H8.304L7.56 67.4384C7.38 67.9744 7.198 68.5064 7.014 69.0344C6.834 69.5584 6.666 70.0524 6.51 70.5164H5.202C5.09 70.2164 4.968 69.8944 4.836 69.5504C4.708 69.2064 4.576 68.8564 4.44 68.5004C4.304 68.1404 4.17 67.7884 4.038 67.4444L3.21 65.2604H3.078L2.832 67.2764C2.776 67.7524 2.714 68.2624 2.646 68.8064C2.582 69.3464 2.514 69.9164 2.442 70.5164H0.6ZM13.9784 67.4984L12.2144 64.1444C12.0224 63.7804 11.8384 63.4324 11.6624 63.1004C11.4904 62.7684 11.2904 62.3884 11.0624 61.9604H13.3064C13.4544 62.2924 13.5804 62.5784 13.6844 62.8184C13.7884 63.0544 13.8864 63.2784 13.9784 63.4904C14.0744 63.7024 14.1784 63.9364 14.2904 64.1924L14.8424 65.4404H15.0044L15.5504 64.2284C15.6744 63.9604 15.7844 63.7164 15.8804 63.4964C15.9804 63.2764 16.0844 63.0464 16.1924 62.8064C16.3004 62.5664 16.4284 62.2844 16.5764 61.9604H18.7544C18.5624 62.3284 18.3704 62.6964 18.1784 63.0644C17.9864 63.4284 17.8004 63.7864 17.6204 64.1384L15.8624 67.4984H13.9784ZM13.9364 70.5164C13.9364 70.0564 13.9364 69.6104 13.9364 69.1784C13.9364 68.7464 13.9364 68.2624 13.9364 67.7264V65.8364H15.9164V67.7264C15.9164 68.2624 15.9164 68.7464 15.9164 69.1784C15.9164 69.6104 15.9164 70.0564 15.9164 70.5164H13.9364Z" fill="#99519D"/>
<path d="M26.2673 70.6484C25.5913 70.6484 24.9813 70.5384 24.4373 70.3184C23.8973 70.0984 23.4373 69.7904 23.0573 69.3944C22.6773 68.9944 22.3853 68.5264 22.1813 67.9904C21.9813 67.4504 21.8813 66.8624 21.8813 66.2264C21.8813 65.3624 22.0593 64.5984 22.4153 63.9344C22.7713 63.2664 23.2653 62.7444 23.8973 62.3684C24.5293 61.9924 25.2653 61.8044 26.1053 61.8044C26.3893 61.8044 26.6653 61.8244 26.9333 61.8644C27.2013 61.9044 27.4553 61.9584 27.6953 62.0264C27.9353 62.0944 28.1573 62.1684 28.3613 62.2484C28.5653 62.3284 28.7413 62.4104 28.8893 62.4944L28.7933 63.5384C28.4813 63.3544 28.1773 63.2064 27.8813 63.0944C27.5893 62.9784 27.3013 62.8944 27.0173 62.8424C26.7373 62.7904 26.4633 62.7644 26.1953 62.7644C25.5793 62.7644 25.0313 62.9044 24.5513 63.1844C24.0713 63.4644 23.6933 63.8644 23.4173 64.3844C23.1453 64.9004 23.0093 65.5164 23.0093 66.2324C23.0093 66.7084 23.0793 67.1564 23.2193 67.5764C23.3633 67.9964 23.5753 68.3664 23.8553 68.6864C24.1393 69.0064 24.4893 69.2584 24.9053 69.4424C25.3253 69.6224 25.8133 69.7124 26.3693 69.7124C26.5733 69.7124 26.7773 69.7004 26.9813 69.6764C27.1853 69.6484 27.3873 69.6064 27.5872 69.5504C27.7873 69.4944 27.9833 69.4204 28.1753 69.3284C28.3713 69.2324 28.5633 69.1204 28.7513 68.9924L28.8353 70.0244C28.6673 70.1324 28.4813 70.2264 28.2773 70.3064C28.0773 70.3864 27.8653 70.4524 27.6413 70.5044C27.4213 70.5524 27.1953 70.5884 26.9633 70.6124C26.7313 70.6364 26.4993 70.6484 26.2673 70.6484ZM34.4401 70.6484C33.7161 70.6484 33.0821 70.5324 32.5381 70.3004C31.9941 70.0644 31.5401 69.7424 31.1761 69.3344C30.8161 68.9224 30.5461 68.4504 30.3661 67.9184C30.1861 67.3864 30.0961 66.8244 30.0961 66.2324C30.0961 65.4004 30.2641 64.6504 30.6001 63.9824C30.9401 63.3144 31.4301 62.7844 32.0701 62.3924C32.7101 62.0004 33.4881 61.8044 34.4041 61.8044C35.1001 61.8044 35.7141 61.9184 36.2461 62.1464C36.7821 62.3744 37.2321 62.6904 37.5961 63.0944C37.9601 63.4984 38.2341 63.9684 38.4181 64.5044C38.6021 65.0404 38.6941 65.6144 38.6941 66.2264C38.6941 67.0704 38.5261 67.8264 38.1901 68.4944C37.8541 69.1584 37.3681 69.6844 36.7321 70.0724C36.0961 70.4564 35.3321 70.6484 34.4401 70.6484ZM34.4101 69.7124C34.9581 69.7124 35.4301 69.6184 35.8261 69.4304C36.2221 69.2384 36.5481 68.9784 36.8041 68.6504C37.0641 68.3224 37.2561 67.9504 37.3801 67.5344C37.5041 67.1144 37.5661 66.6784 37.5661 66.2264C37.5661 65.7384 37.4981 65.2844 37.3621 64.8644C37.2301 64.4404 37.0301 64.0704 36.7621 63.7544C36.4981 63.4344 36.1701 63.1864 35.7781 63.0104C35.3861 62.8304 34.9301 62.7404 34.4101 62.7404C33.8741 62.7404 33.4061 62.8344 33.0061 63.0224C32.6101 63.2104 32.2801 63.4684 32.0161 63.7964C31.7521 64.1204 31.5541 64.4924 31.4221 64.9124C31.2901 65.3284 31.2241 65.7664 31.2241 66.2264C31.2241 66.6904 31.2881 67.1304 31.4161 67.5464C31.5441 67.9624 31.7381 68.3344 31.9981 68.6624C32.2621 68.9864 32.5941 69.2424 32.9941 69.4304C33.3941 69.6184 33.8661 69.7124 34.4101 69.7124ZM40.4327 70.5164C40.4327 70.0404 40.4327 69.5824 40.4327 69.1424C40.4327 68.7024 40.4327 68.2184 40.4327 67.6904V64.8224C40.4327 64.2824 40.4327 63.7904 40.4327 63.3464C40.4327 62.8984 40.4327 62.4364 40.4327 61.9604H41.5367C41.5367 62.4364 41.5367 62.8984 41.5367 63.3464C41.5367 63.7904 41.5367 64.2824 41.5367 64.8224V67.6904C41.5367 68.2184 41.5367 68.7024 41.5367 69.1424C41.5367 69.5824 41.5367 70.0404 41.5367 70.5164H40.4327ZM43.7663 70.5164C43.7663 70.0404 43.7663 69.5824 43.7663 69.1424C43.7663 68.7024 43.7663 68.2184 43.7663 67.6904V64.8224C43.7663 64.2824 43.7663 63.7904 43.7663 63.3464C43.7663 62.8984 43.7663 62.4364 43.7663 61.9604H48.9803V62.8964C48.5803 62.8964 48.1503 62.8964 47.6903 62.8964C47.2343 62.8964 46.6963 62.8964 46.0763 62.8964H44.3723L44.8343 62.1164C44.8343 62.5964 44.8343 63.0604 44.8343 63.5084C44.8343 63.9524 44.8343 64.4424 44.8343 64.9784V67.6904C44.8343 68.2184 44.8343 68.7024 44.8343 69.1424C44.8343 69.5824 44.8343 70.0404 44.8343 70.5164H43.7663ZM44.5763 66.6884V65.7824H46.1543C46.7063 65.7824 47.1823 65.7824 47.5823 65.7824C47.9823 65.7824 48.3683 65.7824 48.7403 65.7824V66.6884C48.3443 66.6884 47.9463 66.6884 47.5463 66.6884C47.1503 66.6884 46.6823 66.6884 46.1423 66.6884H44.5763ZM50.6452 70.5164C50.6452 70.0404 50.6452 69.5824 50.6452 69.1424C50.6452 68.7024 50.6452 68.2184 50.6452 67.6904V64.8224C50.6452 64.2824 50.6452 63.7904 50.6452 63.3464C50.6452 62.8984 50.6452 62.4364 50.6452 61.9604H55.8592V62.8964C55.4592 62.8964 55.0292 62.8964 54.5692 62.8964C54.1132 62.8964 53.5752 62.8964 52.9552 62.8964H51.2512L51.7132 62.1164C51.7132 62.5964 51.7132 63.0604 51.7132 63.5084C51.7132 63.9524 51.7132 64.4424 51.7132 64.9784V67.6904C51.7132 68.2184 51.7132 68.7024 51.7132 69.1424C51.7132 69.5824 51.7132 70.0404 51.7132 70.5164H50.6452ZM51.4552 66.6884V65.7824H53.0332C53.5852 65.7824 54.0612 65.7824 54.4612 65.7824C54.8612 65.7824 55.2472 65.7824 55.6192 65.7824V66.6884C55.2232 66.6884 54.8252 66.6884 54.4252 66.6884C54.0292 66.6884 53.5612 66.6884 53.0212 66.6884H51.4552ZM57.5241 70.5164C57.5241 70.0404 57.5241 69.5824 57.5241 69.1424C57.5241 68.7024 57.5241 68.2184 57.5241 67.6904V64.8164C57.5241 64.2844 57.5241 63.7944 57.5241 63.3464C57.5241 62.8984 57.5241 62.4364 57.5241 61.9604H62.8401V62.8904C62.4401 62.8904 62.0101 62.8904 61.5501 62.8904C61.0941 62.8904 60.5541 62.8904 59.9301 62.8904H57.9861L58.5861 62.1164C58.5861 62.5964 58.5861 63.0604 58.5861 63.5084C58.5861 63.9524 58.5861 64.4404 58.5861 64.9724V67.5284C58.5861 68.0524 58.5861 68.5364 58.5861 68.9804C58.5861 69.4204 58.5861 69.8784 58.5861 70.3544L58.0461 69.5864H60.0261C60.5501 69.5864 61.0441 69.5864 61.5081 69.5864C61.9761 69.5864 62.4241 69.5864 62.8521 69.5864V70.5164H57.5241ZM58.3521 66.6344V65.7284H60.0141C60.5661 65.7284 61.0421 65.7284 61.4421 65.7284C61.8421 65.7284 62.2281 65.7284 62.6001 65.7284V66.6344C62.2081 66.6344 61.8121 66.6344 61.4121 66.6344C61.0161 66.6344 60.5481 66.6344 60.0081 66.6344H58.3521ZM67.9251 70.6484C67.1291 70.6484 66.4811 70.5124 65.9811 70.2404C65.4851 69.9644 65.1191 69.5784 64.8831 69.0824C64.6511 68.5824 64.5351 68.0004 64.5351 67.3364C64.5351 67.1684 64.5351 66.9524 64.5351 66.6884C64.5351 66.4204 64.5351 66.1244 64.5351 65.8004C64.5351 65.4764 64.5351 65.1504 64.5351 64.8224C64.5351 64.2824 64.5351 63.7904 64.5351 63.3464C64.5351 62.8984 64.5351 62.4364 64.5351 61.9604H65.6151C65.6151 62.4364 65.6151 62.8984 65.6151 63.3464C65.6151 63.7904 65.6151 64.2824 65.6151 64.8224V67.2284C65.6151 67.7444 65.6911 68.1884 65.8431 68.5604C65.9951 68.9324 66.2391 69.2184 66.5751 69.4184C66.9151 69.6144 67.3651 69.7124 67.9251 69.7124C68.4891 69.7124 68.9371 69.6144 69.2691 69.4184C69.6051 69.2184 69.8471 68.9324 69.9951 68.5604C70.1431 68.1884 70.2171 67.7404 70.2171 67.2164V64.8224C70.2171 64.2824 70.2171 63.7904 70.2171 63.3464C70.2171 62.8984 70.2171 62.4364 70.2171 61.9604H71.2971C71.2971 62.4364 71.2971 62.8984 71.2971 63.3464C71.2971 63.7904 71.2971 64.2824 71.2971 64.8224C71.2971 65.1504 71.2971 65.4784 71.2971 65.8064C71.2971 66.1304 71.2971 66.4264 71.2971 66.6944C71.2971 66.9624 71.2971 67.1764 71.2971 67.3364C71.2971 68.0004 71.1791 68.5824 70.9431 69.0824C70.7071 69.5784 70.3411 69.9644 69.8451 70.2404C69.3491 70.5124 68.7091 70.6484 67.9251 70.6484ZM73.4147 70.5164C73.4147 70.0404 73.4147 69.5824 73.4147 69.1424C73.4147 68.7024 73.4147 68.2184 73.4147 67.6904V64.8164C73.4147 64.2844 73.4147 63.7944 73.4147 63.3464C73.4147 62.8984 73.4147 62.4364 73.4147 61.9604C73.6427 61.9604 73.9047 61.9604 74.2007 61.9604C74.5007 61.9604 74.8267 61.9604 75.1787 61.9604C75.5347 61.9604 75.9107 61.9604 76.3067 61.9604C76.9587 61.9604 77.5007 62.0384 77.9327 62.1944C78.3687 62.3464 78.6947 62.5924 78.9107 62.9324C79.1307 63.2724 79.2407 63.7204 79.2407 64.2764C79.2407 64.7444 79.1487 65.1724 78.9647 65.5604C78.7847 65.9484 78.4827 66.2604 78.0587 66.4964C77.6347 66.7284 77.0607 66.8464 76.3367 66.8504L76.6787 66.3764L78.0287 68.0624C78.2407 68.3224 78.4647 68.6004 78.7007 68.8964C78.9367 69.1924 79.1667 69.4824 79.3907 69.7664C79.6147 70.0464 79.8147 70.2964 79.9907 70.5164H78.7187C78.4347 70.1564 78.1607 69.8084 77.8967 69.4724C77.6367 69.1364 77.3787 68.8084 77.1227 68.4884L75.5867 66.5084L76.2527 67.0424H74.2907V66.1484H75.9167C76.4167 66.1484 76.8287 66.0904 77.1527 65.9744C77.4767 65.8584 77.7187 65.6724 77.8787 65.4164C78.0387 65.1564 78.1187 64.8124 78.1187 64.3844C78.1187 64.0284 78.0607 63.7484 77.9447 63.5444C77.8327 63.3364 77.6827 63.1844 77.4947 63.0884C77.3107 62.9924 77.1107 62.9304 76.8947 62.9024C76.6787 62.8744 76.4707 62.8604 76.2707 62.8604H73.7507L74.4767 62.1164C74.4767 62.6084 74.4767 63.0764 74.4767 63.5204C74.4767 63.9644 74.4767 64.4484 74.4767 64.9724V67.6904C74.4767 68.2184 74.4767 68.7024 74.4767 69.1424C74.4767 69.5824 74.4767 70.0404 74.4767 70.5164H73.4147Z" fill="black"/>
<path d="M15.984 78.8832V83.5512H16.596V84.4032H15.984C15.96 85.4032 15.604 86.1512 14.916 86.6472C14.364 87.0552 13.648 87.2592 12.768 87.2592C12.632 87.2592 12.46 87.2552 12.252 87.2472L11.856 86.7552V86.3712C12.088 86.4032 12.34 86.4192 12.612 86.4192C14.18 86.4192 14.964 85.6992 14.964 84.2592V78.8832H15.984ZM19.6906 78.8832V83.2632C19.6906 83.3592 19.6786 83.4552 19.6546 83.5512H20.2906V84.4032H19.8226L19.4746 83.9832H19.4386C19.2226 84.2632 18.9426 84.4032 18.5986 84.4032H16.5106V83.5512H18.2146C18.3426 83.5512 18.4466 83.5112 18.5266 83.4312C18.6226 83.3432 18.6706 83.2312 18.6706 83.0952V78.8832H19.6906ZM17.6386 85.6512C17.7986 85.6512 17.9346 85.7072 18.0466 85.8192C18.1666 85.9392 18.2266 86.0792 18.2266 86.2392C18.2266 86.4072 18.1666 86.5472 18.0466 86.6592C17.9346 86.7792 17.7986 86.8392 17.6386 86.8392C17.4786 86.8392 17.3386 86.7792 17.2186 86.6592C17.1066 86.5472 17.0506 86.4072 17.0506 86.2392C17.0506 86.0792 17.1066 85.9392 17.2186 85.8192C17.3386 85.7072 17.4786 85.6512 17.6386 85.6512ZM19.0906 85.6512C19.2586 85.6512 19.3986 85.7072 19.5106 85.8192C19.6306 85.9392 19.6906 86.0792 19.6906 86.2392C19.6906 86.4072 19.6306 86.5472 19.5106 86.6592C19.3986 86.7792 19.2586 86.8392 19.0906 86.8392C18.9306 86.8392 18.7906 86.7792 18.6706 86.6592C18.5586 86.5472 18.5026 86.4072 18.5026 86.2392C18.5026 86.0792 18.5586 85.9392 18.6706 85.8192C18.7906 85.7072 18.9306 85.6512 19.0906 85.6512ZM22.422 83.5512V84.4032H20.202V83.5512H22.422ZM24.5548 83.5512V84.4032H22.3348V83.5512H24.5548ZM26.6876 83.5512V84.4032H24.4676V83.5512H26.6876ZM31.2684 76.2432C31.4364 76.2432 31.5764 76.3032 31.6884 76.4232C31.8084 76.5352 31.8684 76.6712 31.8684 76.8312C31.8684 76.9992 31.8084 77.1432 31.6884 77.2632C31.5764 77.3752 31.4364 77.4312 31.2684 77.4312C31.1084 77.4312 30.9684 77.3752 30.8484 77.2632C30.7364 77.1432 30.6804 76.9992 30.6804 76.8312C30.6804 76.6712 30.7364 76.5352 30.8484 76.4232C30.9684 76.3032 31.1084 76.2432 31.2684 76.2432ZM29.2884 83.5512C28.9844 83.2712 28.7604 82.9232 28.6164 82.5072C28.5044 82.1712 28.4484 81.8392 28.4484 81.5112C28.4484 80.6552 28.7044 79.9752 29.2164 79.4712C29.7204 78.9832 30.4044 78.7392 31.2684 78.7392C31.9244 78.7392 32.4484 78.9072 32.8404 79.2432C33.2964 79.6272 33.5324 80.1872 33.5484 80.9232V83.2632C33.5484 83.5752 33.4404 83.8432 33.2244 84.0672C33.0164 84.2912 32.7644 84.4032 32.4684 84.4032H26.6004V83.5512H29.2884ZM32.5164 80.9232C32.5164 80.4752 32.3844 80.1312 32.1204 79.8912C31.9124 79.6992 31.6284 79.6032 31.2684 79.6032C30.6044 79.6032 30.1164 79.8352 29.8044 80.2992C29.5804 80.6192 29.4684 81.0352 29.4684 81.5472C29.4764 82.0912 29.6524 82.5552 29.9964 82.9392C30.3564 83.3472 30.8324 83.5512 31.4244 83.5512H32.0724C32.3684 83.5512 32.5164 83.3992 32.5164 83.0952V80.9232ZM37.579 84.4032C36.667 84.4032 35.967 84.0992 35.479 83.4912C35.071 82.9872 34.867 82.3392 34.867 81.5472C34.867 80.6432 35.139 79.9392 35.683 79.4352C36.171 78.9712 36.815 78.7392 37.615 78.7392C38.239 78.7392 38.759 78.8952 39.175 79.2072C39.679 79.5992 39.931 80.1712 39.931 80.9232V83.5512H40.315V84.4032H39.931C39.899 85.2432 39.647 85.9032 39.175 86.3832C38.815 86.7512 38.347 87.0032 37.771 87.1392C37.443 87.2192 37.099 87.2592 36.739 87.2592C36.547 87.2592 36.363 87.2552 36.187 87.2472L35.791 86.7552V86.3712C36.031 86.4032 36.283 86.4192 36.547 86.4192C38.075 86.4192 38.859 85.7472 38.899 84.4032H37.579ZM38.899 80.9232C38.899 80.5152 38.779 80.1912 38.539 79.9512C38.307 79.7192 37.999 79.6032 37.615 79.6032C37.079 79.6032 36.655 79.7832 36.343 80.1432C36.039 80.5032 35.887 81.0032 35.887 81.6432C35.887 82.2112 36.043 82.6712 36.355 83.0232C36.667 83.3752 37.071 83.5512 37.567 83.5512H38.899V80.9232ZM45.6416 75.6312V76.5672L42.6296 78.3552C43.8776 78.6912 44.8616 79.3152 45.5816 80.2272C46.2376 81.0592 46.5656 82.0192 46.5656 83.1072C46.5656 83.4912 46.4656 83.8032 46.2656 84.0432C46.0656 84.2832 45.8056 84.4032 45.4856 84.4032H40.2176V83.5512H45.0896C45.4016 83.5512 45.5576 83.3912 45.5576 83.0712C45.5176 82.2392 45.2736 81.5072 44.8256 80.8752C44.1856 79.9472 43.1616 79.3872 41.7536 79.1952C41.7056 79.1952 41.6816 79.1672 41.6816 79.1112V77.9232L45.6416 75.6312ZM51.2777 84.2712C51.2777 85.0632 51.4857 85.6152 51.9017 85.9272C52.3257 86.2472 53.0617 86.4072 54.1097 86.4072C55.0057 86.4072 55.6577 86.3232 56.0657 86.1552C56.6577 85.9072 56.9537 85.4712 56.9537 84.8472C56.9537 84.4312 56.8457 84.1232 56.6297 83.9232C56.4137 83.7232 55.9817 83.5312 55.3337 83.3472C54.5337 83.1152 53.9777 82.8552 53.6657 82.5672C53.2897 82.2072 53.1017 81.7032 53.1017 81.0552C53.1017 80.2472 53.3457 79.6432 53.8337 79.2432C54.2417 78.9072 54.7977 78.7392 55.5017 78.7392C55.9577 78.7392 56.4337 78.8152 56.9297 78.9672V79.7592C56.3937 79.6312 55.9617 79.5672 55.6337 79.5672C54.6097 79.5672 54.0977 80.0632 54.0977 81.0552C54.0977 81.4392 54.2057 81.7352 54.4217 81.9432C54.6457 82.1432 55.0737 82.3392 55.7057 82.5312C56.5057 82.7712 57.0617 83.0472 57.3737 83.3592C57.7417 83.7272 57.9257 84.2312 57.9257 84.8712C57.9257 85.7512 57.5537 86.3992 56.8097 86.8152C56.2657 87.1192 55.5897 87.2712 54.7817 87.2712H53.4497C52.4497 87.2712 51.6617 87.0032 51.0857 86.4672C50.5337 85.9552 50.2577 85.2312 50.2577 84.2952V82.7352L50.7737 82.3152H51.2777V84.2712ZM53.3777 87.9672C53.5377 87.9672 53.6737 88.0232 53.7857 88.1352C53.9057 88.2552 53.9657 88.3992 53.9657 88.5672C53.9657 88.7272 53.9057 88.8632 53.7857 88.9752C53.6737 89.0952 53.5377 89.1552 53.3777 89.1552C53.2177 89.1552 53.0777 89.0952 52.9577 88.9752C52.8457 88.8632 52.7897 88.7272 52.7897 88.5672C52.7897 88.3992 52.8457 88.2552 52.9577 88.1352C53.0777 88.0232 53.2177 87.9672 53.3777 87.9672ZM54.8417 87.9672C55.0017 87.9672 55.1377 88.0232 55.2497 88.1352C55.3697 88.2552 55.4297 88.3992 55.4297 88.5672C55.4297 88.7272 55.3697 88.8632 55.2497 88.9752C55.1377 89.0952 55.0017 89.1552 54.8417 89.1552C54.6737 89.1552 54.5297 89.0952 54.4097 88.9752C54.2977 88.8632 54.2417 88.7272 54.2417 88.5672C54.2417 88.3992 54.2977 88.2552 54.4097 88.1352C54.5297 88.0232 54.6737 87.9672 54.8417 87.9672ZM60.3246 75.8112V83.0952C60.3246 83.2232 60.3646 83.3312 60.4446 83.4192C60.5326 83.5072 60.6446 83.5512 60.7806 83.5512H60.9366V84.4032H60.3846C60.1286 84.4032 59.9046 84.3192 59.7126 84.1512C59.4406 83.9192 59.3046 83.6232 59.3046 83.2632V75.8112H60.3246ZM63.0143 80.9232C63.0143 80.1072 63.3023 79.5072 63.8783 79.1232C64.2543 78.8752 64.7543 78.7512 65.3783 78.7512C66.1383 78.7512 66.7743 79.0112 67.2863 79.5312C67.7983 80.0512 68.0543 80.7792 68.0543 81.7152C68.0543 82.5872 67.7983 83.3232 67.2863 83.9232C66.8063 84.4832 66.1983 84.7632 65.4623 84.7632C64.7743 84.7632 64.2143 84.5032 63.7823 83.9832C63.5663 84.2632 63.2783 84.4032 62.9183 84.4032H60.8543V83.5512H62.5583C62.6863 83.5512 62.7943 83.5072 62.8823 83.4192C62.9703 83.3312 63.0143 83.2232 63.0143 83.0952V80.9232ZM64.0343 83.2752C64.4503 83.6992 64.9103 83.9112 65.4143 83.9112C65.8943 83.9112 66.2823 83.7152 66.5783 83.3232C66.8823 82.9232 67.0343 82.4072 67.0343 81.7752C67.0343 81.0712 66.8583 80.5152 66.5063 80.1072C66.2103 79.7712 65.8183 79.6032 65.3303 79.6032C64.9623 79.6032 64.6623 79.7112 64.4303 79.9272C64.1663 80.1752 64.0343 80.5072 64.0343 80.9232V83.2752Z" fill="black"/>
<defs>
<linearGradient id="paint0_linear_149_1400" x1="27.7249" y1="71.1796" x2="46.3292" y2="11.9214" gradientUnits="userSpaceOnUse">
<stop stop-color="#99519D"/>
<stop offset="1" stop-color="#99519D"/>
</linearGradient>
<linearGradient id="paint1_linear_149_1400" x1="29.8851" y1="71.8577" x2="48.4894" y2="12.5996" gradientUnits="userSpaceOnUse">
<stop stop-color="#D3D3D3"/>
<stop offset="1" stop-color="#A863AC"/>
</linearGradient>
</defs>
</svg>
