<svg width="246" height="89" viewBox="0 0 246 89" fill="none" xmlns="http://www.w3.org/2000/svg">
<path d="M235.847 -0.00195312C241.544 -0.00163639 245.874 5.44648 245.874 11.7793V76.4668C245.874 82.7996 241.544 88.2477 235.847 88.248H10.1515C4.4546 88.2478 0.124146 82.7996 0.124146 76.4668V11.7793C0.124146 5.44646 4.4546 -0.00167633 10.1515 -0.00195312H235.847ZM10.1515 1.99805C5.87697 1.99833 2.12415 6.20384 2.12415 11.7793V76.4668C2.12415 82.0423 5.87697 86.2478 10.1515 86.248H235.847C240.121 86.2477 243.874 82.0422 243.874 76.4668V11.7793C243.874 6.20387 240.121 1.99837 235.847 1.99805H10.1515Z" fill="#99519D"/>
<path d="M136.548 47.4417C137.924 47.4399 139.236 48.0256 140.153 49.051H140.265V47.9251H143.033V60.1048C143.033 65.157 140.121 67.2335 136.597 67.2337C133.941 67.2495 131.541 65.6513 130.531 63.1946L133.153 62.1008C133.701 63.5345 135.063 64.4946 136.597 64.5305C138.85 64.5303 140.249 63.1297 140.249 60.5071V59.5257H140.153C139.249 60.5688 137.929 61.1582 136.548 61.135C132.896 60.9579 130.026 57.9449 130.026 54.2883C130.026 50.6318 132.896 47.6188 136.548 47.4417ZM207.797 56.6458H207.894L211.337 47.9241H214.685L206.446 66.8948H203.308L206.366 60.1214L201.007 47.9241H204.226L207.797 56.6458ZM156.098 47.5227C158.766 47.621 161.096 49.3556 161.956 51.8831L162.293 52.6067L153.138 56.388C153.712 57.6948 155.026 58.5185 156.453 58.4641C157.829 58.4675 159.106 57.7463 159.815 56.5657L162.149 58.1741C160.879 60.0751 158.739 61.2117 156.453 61.1995C154.635 61.2261 152.885 60.5127 151.604 59.2229C150.323 57.9332 149.623 56.1776 149.663 54.3606C149.551 52.5852 150.18 50.8426 151.399 49.5471C152.618 48.2518 154.319 47.5193 156.098 47.5227ZM106.89 47.5217C108.713 47.4902 110.471 48.1975 111.763 49.4837C113.058 50.7729 113.774 52.5333 113.747 54.3606C113.747 58.1352 110.689 61.1956 106.914 61.1985C103.14 61.2013 100.077 58.1458 100.071 54.3714C100.065 50.5977 103.117 47.5324 106.89 47.5217ZM121.873 47.5217C123.701 47.4867 125.464 48.1946 126.759 49.4837C128.054 50.7729 128.771 52.5333 128.745 54.3606C128.744 58.1331 125.689 61.1926 121.916 61.1985C118.144 61.2044 115.08 58.1545 115.068 54.3821C115.056 50.6096 118.101 47.5396 121.873 47.5217ZM89.0493 39.8792C91.7857 39.8556 94.4155 40.9409 96.3383 42.888L94.2944 44.9319C92.8845 43.5707 90.9922 42.8238 89.0327 42.8557C84.7672 42.8558 81.3092 46.314 81.309 50.5794C81.309 54.8449 84.7671 58.3029 89.0327 58.303C91.0384 58.3829 92.9848 57.6114 94.3911 56.179C95.3239 55.1778 95.8914 53.8907 96.0004 52.5266H89.0493V49.6301L98.8159 49.5501C98.9281 50.1495 98.9822 50.7586 98.977 51.3684C99.0526 53.8716 98.152 56.3064 96.4662 58.1585C94.5399 60.1755 91.8355 61.2608 89.0493 61.135C85.1537 61.2866 81.4865 59.2952 79.4936 55.9446C77.5008 52.594 77.5009 48.4212 79.4936 45.0706C81.4865 41.7199 85.1537 39.7276 89.0493 39.8792ZM189.246 50.5149C190.26 48.5153 192.365 47.3081 194.603 47.4417L194.684 47.4905C198.111 47.4906 200.783 49.5341 200.783 53.0579V60.7971H197.886V59.1878H197.789C196.952 60.489 195.471 61.2293 193.927 61.1184C192.675 61.2109 191.438 60.7936 190.498 59.9602C189.559 59.1268 188.997 57.9482 188.94 56.6936C188.94 53.7815 191.852 52.1722 194.732 52.1721C195.825 52.1675 196.903 52.433 197.87 52.9446V52.7356C197.793 51.9627 197.409 51.253 196.804 50.7659C196.199 50.2788 195.423 50.0547 194.652 50.1448C193.527 50.0529 192.455 50.6337 191.916 51.6253L189.246 50.5149ZM148.198 60.7971H145.189V40.6839H148.198V60.7971ZM176.067 40.6839C178.404 40.5159 180.64 41.6683 181.86 43.6692C183.08 45.6701 183.08 48.185 181.86 50.1858C180.64 52.1866 178.404 53.3381 176.067 53.1702H171.868V60.7971H168.858V40.6839H176.067ZM187.298 40.6839V60.7971H184.289V40.6839H187.298ZM108.097 50.5051C106.508 49.8848 104.702 50.2997 103.542 51.551C102.383 52.8025 102.107 54.636 102.847 56.1731C103.587 57.7099 105.192 58.6375 106.893 58.512H106.877C107.945 58.4872 108.957 58.0329 109.684 57.2512C110.411 56.4696 110.791 55.4269 110.739 54.3606C110.734 52.6547 109.686 51.1256 108.097 50.5051ZM123.098 50.5061C121.511 49.8845 119.705 50.2953 118.544 51.5432C117.383 52.7913 117.104 54.6224 117.838 56.1604C118.573 57.6984 120.173 58.6308 121.873 58.512C122.941 58.4872 123.953 58.0329 124.68 57.2512C125.407 56.4696 125.788 55.4269 125.736 54.3606C125.731 52.6562 124.685 51.1279 123.098 50.5061ZM136.806 58.512H136.822C136.82 58.5118 136.818 58.5112 136.816 58.511C136.813 58.5111 136.809 58.5119 136.806 58.512ZM195.102 54.6184C193.59 54.6185 191.885 55.1494 191.884 56.7581C191.884 57.9647 193.251 58.464 194.233 58.4641L194.314 58.512C196.126 58.4677 197.629 57.0954 197.837 55.2942C197.003 54.8283 196.058 54.5948 195.102 54.6184ZM136.822 50.2092C134.67 50.3989 133.02 52.2009 133.02 54.3606C133.02 56.5184 134.667 58.3185 136.816 58.511C137.858 58.4682 138.837 58.0033 139.528 57.2219C140.221 56.4378 140.563 55.4034 140.474 54.3606C140.553 53.3227 140.21 52.2964 139.523 51.5149C138.835 50.7336 137.861 50.2626 136.822 50.2092ZM156.195 50.177C155.188 50.2225 154.243 50.6707 153.571 51.4212C152.899 52.1719 152.557 53.1619 152.622 54.1673L158.738 51.6253C158.257 50.677 157.256 50.1071 156.195 50.177ZM171.851 50.3382H176.051L176.116 50.386C178.022 50.3858 179.567 48.8407 179.567 46.9348C179.567 45.0288 178.022 43.4829 176.116 43.4827H171.851V50.3382Z" fill="#99519D"/>
<path d="M85.8018 17.8848C86.7188 17.8817 87.6267 18.066 88.4698 18.4268C89.2547 18.7434 89.9535 19.2421 90.5088 19.8809L89.3594 21.0303C88.4816 19.9862 87.1638 19.4158 85.8018 19.4902C84.4327 19.4835 83.1197 20.0343 82.1661 21.0166C81.2124 21.999 80.6999 23.328 80.7471 24.6963C80.7181 26.7639 81.9361 28.6459 83.834 29.4668C85.732 30.2877 87.938 29.8864 89.4248 28.4492C90.0922 27.7259 90.4766 26.7864 90.5088 25.8027H85.8018V24.2402H92.1143C92.1722 24.5624 92.2013 24.8895 92.2012 25.2168C92.2757 26.8247 91.6877 28.3932 90.5743 29.5557C89.3301 30.848 87.5946 31.5501 85.8018 31.4863C83.052 31.4648 80.5828 29.7968 79.5362 27.2539C78.4896 24.7109 79.0697 21.7878 81.0079 19.8369C82.2672 18.5513 84.0026 17.8447 85.8018 17.8848ZM144.241 17.873C146.033 17.873 147.751 18.5886 149.014 19.8604C151.584 22.5649 151.584 26.8082 149.014 29.5127C146.374 32.138 142.11 32.138 139.47 29.5127C136.911 26.8038 136.911 22.5692 139.47 19.8604C140.732 18.5888 142.449 17.8732 144.241 17.873ZM102.137 19.7949H96.2793V23.917H101.616V25.4785H96.2793V29.5996H102.137V31.2051H94.544V18.1895H102.137V19.7949ZM112.982 19.7949H109.252V31.2051H107.581V19.7949H103.937V18.1895H112.982V19.7949ZM121.03 31.2051H119.36V18.1895H121.03V31.2051ZM132.072 19.7949H128.449V31.2051H126.779V19.7949H123.135V18.1895H132.072V19.7949ZM161.661 28.3203V18.1895H163.331V31.2051H161.596L154.98 20.5977V31.2051H153.287V18.1895H155.326L161.661 28.3203ZM147.777 20.9668C145.822 19.0198 142.661 19.0198 140.706 20.9668C138.786 23.0836 138.786 26.3119 140.706 28.4287C142.661 30.3757 145.822 30.3757 147.777 28.4287C149.698 26.3119 149.698 23.0836 147.777 20.9668Z" fill="#99519D"/>
<path d="M85.8018 17.8848L85.7996 17.9848L85.8021 17.9848L85.8018 17.8848ZM88.4698 18.4268L88.4304 18.5187L88.4324 18.5195L88.4698 18.4268ZM90.5088 19.8809L90.5795 19.9516L90.6455 19.8856L90.5843 19.8152L90.5088 19.8809ZM89.3594 21.0303L89.2829 21.0946L89.353 21.1781L89.4301 21.101L89.3594 21.0303ZM85.8018 19.4902L85.8013 19.5904L85.8073 19.5901L85.8018 19.4902ZM82.1661 21.0166L82.0943 20.9469L82.0943 20.9469L82.1661 21.0166ZM80.7471 24.6963L80.8472 24.6977L80.8471 24.6928L80.7471 24.6963ZM83.834 29.4668L83.7943 29.5586L83.7943 29.5586L83.834 29.4668ZM89.4248 28.4492L89.4945 28.5212L89.4983 28.517L89.4248 28.4492ZM90.5088 25.8027L90.6088 25.806L90.6122 25.7027H90.5088V25.8027ZM85.8018 25.8027H85.7018V25.9027H85.8018V25.8027ZM85.8018 24.2402V24.1402H85.7018V24.2402H85.8018ZM92.1143 24.2402L92.2127 24.2226L92.1979 24.1402H92.1143V24.2402ZM92.2012 25.2168L92.1011 25.2168L92.1013 25.2214L92.2012 25.2168ZM90.5743 29.5557L90.6463 29.625L90.6465 29.6248L90.5743 29.5557ZM85.8018 31.4863L85.8054 31.3864L85.8026 31.3863L85.8018 31.4863ZM79.5362 27.2539L79.4437 27.292L79.4437 27.292L79.5362 27.2539ZM81.0079 19.8369L81.0788 19.9074L81.0793 19.9069L81.0079 19.8369ZM144.241 17.873V17.773H144.241L144.241 17.873ZM149.014 19.8604L149.086 19.7915L149.085 19.7899L149.014 19.8604ZM149.014 29.5127L149.084 29.5836L149.086 29.5816L149.014 29.5127ZM139.47 29.5127L139.397 29.5814L139.399 29.5836L139.47 29.5127ZM139.47 19.8604L139.399 19.7899L139.397 19.7917L139.47 19.8604ZM102.137 19.7949V19.8949H102.237V19.7949H102.137ZM96.2793 19.7949V19.6949H96.1793V19.7949H96.2793ZM96.2793 23.917H96.1793V24.017H96.2793V23.917ZM101.616 23.917H101.716V23.817H101.616V23.917ZM101.616 25.4785V25.5785H101.716V25.4785H101.616ZM96.2793 25.4785V25.3785H96.1793V25.4785H96.2793ZM96.2793 29.5996H96.1793V29.6996H96.2793V29.5996ZM102.137 29.5996H102.237V29.4996H102.137V29.5996ZM102.137 31.2051V31.3051H102.237V31.2051H102.137ZM94.544 31.2051H94.444V31.3051H94.544V31.2051ZM94.544 18.1895V18.0895H94.444V18.1895H94.544ZM102.137 18.1895H102.237V18.0895H102.137V18.1895ZM112.982 19.7949V19.8949H113.082V19.7949H112.982ZM109.252 19.7949V19.6949H109.152V19.7949H109.252ZM109.252 31.2051V31.3051H109.352V31.2051H109.252ZM107.581 31.2051H107.481V31.3051H107.581V31.2051ZM107.581 19.7949H107.681V19.6949H107.581V19.7949ZM103.937 19.7949H103.837V19.8949H103.937V19.7949ZM103.937 18.1895V18.0895H103.837V18.1895H103.937ZM112.982 18.1895H113.082V18.0895H112.982V18.1895ZM121.03 31.2051V31.3051H121.13V31.2051H121.03ZM119.36 31.2051H119.26V31.3051H119.36V31.2051ZM119.36 18.1895V18.0895H119.26V18.1895H119.36ZM121.03 18.1895H121.13V18.0895H121.03V18.1895ZM132.072 19.7949V19.8949H132.172V19.7949H132.072ZM128.449 19.7949V19.6949H128.349V19.7949H128.449ZM128.449 31.2051V31.3051H128.549V31.2051H128.449ZM126.779 31.2051H126.679V31.3051H126.779V31.2051ZM126.779 19.7949H126.879V19.6949H126.779V19.7949ZM123.135 19.7949H123.035V19.8949H123.135V19.7949ZM123.135 18.1895V18.0895H123.035V18.1895H123.135ZM132.072 18.1895H132.172V18.0895H132.072V18.1895ZM161.661 28.3203L161.576 28.3733L161.761 28.6688V28.3203H161.661ZM161.661 18.1895V18.0895H161.561V18.1895H161.661ZM163.331 18.1895H163.431V18.0895H163.331V18.1895ZM163.331 31.2051V31.3051H163.431V31.2051H163.331ZM161.596 31.2051L161.511 31.258L161.54 31.3051H161.596V31.2051ZM154.98 20.5977L155.064 20.5447L154.88 20.2484V20.5977H154.98ZM154.98 31.2051V31.3051H155.08V31.2051H154.98ZM153.287 31.2051H153.187V31.3051H153.287V31.2051ZM153.287 18.1895V18.0895H153.187V18.1895H153.287ZM155.326 18.1895L155.411 18.1364L155.382 18.0895H155.326V18.1895ZM147.777 20.9668L147.852 20.8995L147.848 20.8959L147.777 20.9668ZM140.706 20.9668L140.635 20.8958L140.632 20.8996L140.706 20.9668ZM140.706 28.4287L140.632 28.496L140.636 28.4996L140.706 28.4287ZM147.777 28.4287L147.848 28.4997L147.851 28.4959L147.777 28.4287ZM85.8018 17.8848L85.8021 17.9848C86.7055 17.9818 87.5999 18.1633 88.4304 18.5187L88.4698 18.4268L88.5091 18.3348C87.6535 17.9687 86.7321 17.7817 85.8015 17.7848L85.8018 17.8848ZM88.4698 18.4268L88.4324 18.5195C89.2026 18.8302 89.8883 19.3196 90.4334 19.9465L90.5088 19.8809L90.5843 19.8152C90.0186 19.1646 89.3068 18.6566 88.5072 18.334L88.4698 18.4268ZM90.5088 19.8809L90.4381 19.8101L89.2887 20.9596L89.3594 21.0303L89.4301 21.101L90.5795 19.9516L90.5088 19.8809ZM89.3594 21.0303L89.436 20.9659C88.5379 19.8977 87.1898 19.3142 85.7963 19.3904L85.8018 19.4902L85.8073 19.5901C87.1379 19.5174 88.4253 20.0746 89.2829 21.0946L89.3594 21.0303ZM85.8018 19.4902L85.8023 19.3902C84.4061 19.3834 83.067 19.9451 82.0943 20.9469L82.1661 21.0166L82.2378 21.0863C83.1725 20.1235 84.4594 19.5837 85.8013 19.5902L85.8018 19.4902ZM82.1661 21.0166L82.0943 20.9469C81.1217 21.9488 80.599 23.3042 80.6472 24.6997L80.7471 24.6963L80.8471 24.6928C80.8008 23.3517 81.3031 22.0491 82.2378 21.0863L82.1661 21.0166ZM80.7471 24.6963L80.6471 24.6949C80.6176 26.8029 81.8594 28.7217 83.7943 29.5586L83.834 29.4668L83.8737 29.375C82.0129 28.5702 80.8187 26.7249 80.8471 24.6977L80.7471 24.6963ZM83.834 29.4668L83.7943 29.5586C85.7294 30.3955 87.9785 29.9864 89.4944 28.5211L89.4248 28.4492L89.3553 28.3773C87.8976 29.7865 85.7347 30.1799 83.8737 29.375L83.834 29.4668ZM89.4248 28.4492L89.4983 28.517C90.182 27.7761 90.5758 26.8136 90.6088 25.806L90.5088 25.8027L90.4089 25.7995C90.3775 26.7591 90.0024 27.6758 89.3514 28.3814L89.4248 28.4492ZM90.5088 25.8027V25.7027H85.8018V25.8027V25.9027H90.5088V25.8027ZM85.8018 25.8027H85.9018V24.2402H85.8018H85.7018V25.8027H85.8018ZM85.8018 24.2402V24.3402H92.1143V24.2402V24.1402H85.8018V24.2402ZM92.1143 24.2402L92.0159 24.2579C92.0727 24.5743 92.1013 24.8954 92.1012 25.2168L92.2012 25.2168L92.3012 25.2168C92.3013 24.8836 92.2716 24.5505 92.2127 24.2226L92.1143 24.2402ZM92.2012 25.2168L92.1013 25.2214C92.1746 26.802 91.5965 28.3438 90.502 29.4865L90.5743 29.5557L90.6465 29.6248C91.7788 28.4426 92.3769 26.8474 92.3011 25.2122L92.2012 25.2168ZM90.5743 29.5557L90.5022 29.4863C89.2778 30.7582 87.5697 31.4492 85.8054 31.3864L85.8018 31.4863L85.7982 31.5863C87.6194 31.6511 89.3824 30.9378 90.6463 29.625L90.5743 29.5557ZM85.8018 31.4863L85.8026 31.3863C83.0931 31.3651 80.66 29.7215 79.6287 27.2158L79.5362 27.2539L79.4437 27.292C80.5057 29.872 83.011 31.5645 85.801 31.5863L85.8018 31.4863ZM79.5362 27.2539L79.6287 27.2158C78.5974 24.71 79.169 21.8297 81.0788 19.9074L81.0079 19.8369L80.9369 19.7664C78.9704 21.7458 78.3818 24.7117 79.4437 27.292L79.5362 27.2539ZM81.0079 19.8369L81.0793 19.9069C82.3193 18.6411 84.0281 17.9453 85.7996 17.9847L85.8018 17.8848L85.804 17.7848C83.9772 17.7441 82.2151 18.4616 80.9364 19.7669L81.0079 19.8369ZM144.241 17.873V17.973C146.007 17.973 147.699 18.678 148.943 19.9308L149.014 19.8604L149.085 19.7899C147.803 18.4993 146.06 17.773 144.241 17.773V17.873ZM149.014 19.8604L148.941 19.9292C151.475 22.5951 151.475 26.7779 148.941 29.4438L149.014 29.5127L149.086 29.5816C151.693 26.8384 151.693 22.5346 149.086 19.7915L149.014 19.8604ZM149.014 29.5127L148.943 29.4418C146.342 32.0283 142.141 32.0283 139.54 29.4418L139.47 29.5127L139.399 29.5836C142.078 32.2477 146.405 32.2477 149.084 29.5836L149.014 29.5127ZM139.47 29.5127L139.542 29.444C137.02 26.7737 137.02 22.5994 139.542 19.929L139.47 19.8604L139.397 19.7917C136.802 22.5391 136.802 26.8339 139.397 29.5814L139.47 29.5127ZM139.47 19.8604L139.541 19.9308C140.784 18.6781 142.476 17.9732 144.241 17.973L144.241 17.873L144.241 17.773C142.423 17.7732 140.68 18.4994 139.399 19.7899L139.47 19.8604ZM102.137 19.7949V19.6949H96.2793V19.7949V19.8949H102.137V19.7949ZM96.2793 19.7949H96.1793V23.917H96.2793H96.3793V19.7949H96.2793ZM96.2793 23.917V24.017H101.616V23.917V23.817H96.2793V23.917ZM101.616 23.917H101.516V25.4785H101.616H101.716V23.917H101.616ZM101.616 25.4785V25.3785H96.2793V25.4785V25.5785H101.616V25.4785ZM96.2793 25.4785H96.1793V29.5996H96.2793H96.3793V25.4785H96.2793ZM96.2793 29.5996V29.6996H102.137V29.5996V29.4996H96.2793V29.5996ZM102.137 29.5996H102.037V31.2051H102.137H102.237V29.5996H102.137ZM102.137 31.2051V31.1051H94.544V31.2051V31.3051H102.137V31.2051ZM94.544 31.2051H94.644V18.1895H94.544H94.444V31.2051H94.544ZM94.544 18.1895V18.2895H102.137V18.1895V18.0895H94.544V18.1895ZM102.137 18.1895H102.037V19.7949H102.137H102.237V18.1895H102.137ZM112.982 19.7949V19.6949H109.252V19.7949V19.8949H112.982V19.7949ZM109.252 19.7949H109.152V31.2051H109.252H109.352V19.7949H109.252ZM109.252 31.2051V31.1051H107.581V31.2051V31.3051H109.252V31.2051ZM107.581 31.2051H107.681V19.7949H107.581H107.481V31.2051H107.581ZM107.581 19.7949V19.6949H103.937V19.7949V19.8949H107.581V19.7949ZM103.937 19.7949H104.037V18.1895H103.937H103.837V19.7949H103.937ZM103.937 18.1895V18.2895H112.982V18.1895V18.0895H103.937V18.1895ZM112.982 18.1895H112.882V19.7949H112.982H113.082V18.1895H112.982ZM121.03 31.2051V31.1051H119.36V31.2051V31.3051H121.03V31.2051ZM119.36 31.2051H119.46V18.1895H119.36H119.26V31.2051H119.36ZM119.36 18.1895V18.2895H121.03V18.1895V18.0895H119.36V18.1895ZM121.03 18.1895H120.93V31.2051H121.03H121.13V18.1895H121.03ZM132.072 19.7949V19.6949H128.449V19.7949V19.8949H132.072V19.7949ZM128.449 19.7949H128.349V31.2051H128.449H128.549V19.7949H128.449ZM128.449 31.2051V31.1051H126.779V31.2051V31.3051H128.449V31.2051ZM126.779 31.2051H126.879V19.7949H126.779H126.679V31.2051H126.779ZM126.779 19.7949V19.6949H123.135V19.7949V19.8949H126.779V19.7949ZM123.135 19.7949H123.235V18.1895H123.135H123.035V19.7949H123.135ZM123.135 18.1895V18.2895H132.072V18.1895V18.0895H123.135V18.1895ZM132.072 18.1895H131.972V19.7949H132.072H132.172V18.1895H132.072ZM161.661 28.3203H161.761V18.1895H161.661H161.561V28.3203H161.661ZM161.661 18.1895V18.2895H163.331V18.1895V18.0895H161.661V18.1895ZM163.331 18.1895H163.231V31.2051H163.331H163.431V18.1895H163.331ZM163.331 31.2051V31.1051H161.596V31.2051V31.3051H163.331V31.2051ZM161.596 31.2051L161.681 31.1522L155.064 20.5447L154.98 20.5977L154.895 20.6506L161.511 31.258L161.596 31.2051ZM154.98 20.5977H154.88V31.2051H154.98H155.08V20.5977H154.98ZM154.98 31.2051V31.1051H153.287V31.2051V31.3051H154.98V31.2051ZM153.287 31.2051H153.387V18.1895H153.287H153.187V31.2051H153.287ZM153.287 18.1895V18.2895H155.326V18.1895V18.0895H153.287V18.1895ZM155.326 18.1895L155.241 18.2425L161.576 28.3733L161.661 28.3203L161.746 28.2673L155.411 18.1364L155.326 18.1895ZM147.777 20.9668L147.848 20.8959C145.854 18.9101 142.63 18.9101 140.636 20.8959L140.706 20.9668L140.777 21.0377C142.693 19.1295 145.791 19.1295 147.707 21.0377L147.777 20.9668ZM140.706 20.9668L140.632 20.8996C138.677 23.0545 138.677 26.341 140.632 28.4959L140.706 28.4287L140.78 28.3615C138.895 26.2828 138.895 23.1127 140.78 21.034L140.706 20.9668ZM140.706 28.4287L140.636 28.4996C142.63 30.4854 145.854 30.4854 147.848 28.4996L147.777 28.4287L147.707 28.3579C145.791 30.266 142.693 30.266 140.777 28.3579L140.706 28.4287ZM147.777 28.4287L147.851 28.4959C149.806 26.341 149.806 23.0545 147.851 20.8996L147.777 20.9668L147.703 21.034C149.589 23.1127 149.589 26.2828 147.703 28.3615L147.777 28.4287Z" fill="white"/>
<path d="M23.1472 26.0157C22.6308 26.6355 22.3701 27.4288 22.4183 28.2341V63.2853C22.3701 64.0906 22.6308 64.884 23.1472 65.5038L23.2582 65.6147L42.8913 45.9974V45.5379L23.2582 25.9048L23.1472 26.0157Z" fill="#99519D"/>
<path d="M49.3883 52.5417L42.8914 45.9973V45.5378L49.3883 38.9775L49.5309 39.0568L57.3112 43.4778C59.5297 44.7296 59.5297 46.7896 57.3112 48.0573L49.5626 52.4624L49.3883 52.5417Z" fill="#CB71D0"/>
<path d="M49.5784 52.4467L42.8914 45.7598L23.1474 65.5038C24.0803 66.3239 25.4648 66.3638 26.4434 65.5989L49.5943 52.4467" fill="#CA82CE"/>
<path d="M49.5783 39.0731L26.4274 25.921C25.4488 25.156 24.0643 25.196 23.1315 26.016L42.8914 45.7601L49.5783 39.0731Z" fill="#FBD7FD"/>
<path opacity="0.2" d="M49.3883 52.3042L26.4275 65.3771C25.4879 66.0796 24.1979 66.0796 23.2583 65.3771L23.1474 65.488L23.2583 65.5989C24.1962 66.3067 25.4897 66.3067 26.4275 65.5989L49.5784 52.4468L49.3883 52.3042Z" fill="white"/>
<path opacity="0.12" d="M22.4168 63.3887C22.4464 64.0799 22.7006 64.7462 23.1473 65.2822L23.2577 65.4082L23.1473 65.5195C22.6495 64.9222 22.3918 64.1638 22.4168 63.3887ZM22.4178 63.3008C22.4161 63.3299 22.4178 63.3596 22.4168 63.3887C22.4122 63.2807 22.4113 63.1722 22.4178 63.0635V63.3008ZM58.8954 45.7598C58.8137 46.7491 58.2098 47.6198 57.3114 48.042L49.5311 52.4473L49.3885 52.3047L57.3114 47.8203C58.1301 47.4162 58.7148 46.6547 58.8954 45.7598Z" fill="white"/>
<path opacity="0.25" d="M26.4275 26.1416L57.3112 43.6989C58.13 44.1031 58.7152 44.8639 58.8958 45.7589C58.8141 44.7695 58.2098 43.8992 57.3112 43.4771L26.4275 25.9198C24.209 24.668 22.4026 25.7138 22.4026 28.2491V28.4868C22.4501 25.9356 24.2249 24.8898 26.4275 26.1416Z" fill="white"/>
</svg>
