<svg width="33" height="33" viewBox="0 0 33 33" fill="none" xmlns="http://www.w3.org/2000/svg">
<g clip-path="url(#clip0_148_1521)">
<path d="M28.332 6.56445H4.33203C3.8016 6.56445 3.29289 6.77517 2.91782 7.15024C2.54274 7.52531 2.33203 8.03402 2.33203 8.56445V24.5645C2.33203 25.0949 2.54274 25.6036 2.91782 25.9787C3.29289 26.3537 3.8016 26.5645 4.33203 26.5645H28.332C28.8625 26.5645 29.3712 26.3537 29.7462 25.9787C30.1213 25.6036 30.332 25.0949 30.332 24.5645V8.56445C30.332 8.03402 30.1213 7.52531 29.7462 7.15024C29.3712 6.77517 28.8625 6.56445 28.332 6.56445ZM26.132 8.56445L16.332 15.3445L6.53203 8.56445H26.132ZM4.33203 24.5645V9.47445L15.762 17.3845C15.9294 17.5006 16.1283 17.5628 16.332 17.5628C16.5358 17.5628 16.7346 17.5006 16.902 17.3845L28.332 9.47445V24.5645H4.33203Z" fill="#99519D"/>
</g>
<defs>
<clipPath id="clip0_148_1521">
<rect width="32" height="32" fill="white" transform="translate(0.332031 0.564453)"/>
</clipPath>
</defs>
</svg>
