<svg width="52" height="19" viewBox="0 0 52 19" fill="none" xmlns="http://www.w3.org/2000/svg">
<path d="M42.7457 14.3651L41.4036 11.335C40.3359 10.5206 39.1888 9.80384 38.1243 8.98204C37.5046 8.50362 36.8869 7.97644 36.356 7.3916L41.2157 18.4864H42.2274L44.1251 14.1864C43.888 13.7975 43.6131 13.4275 43.3127 13.08L42.7457 14.3651Z" fill="#99519D"/>
<path d="M51.269 0.101074H49.0386H48.1459V0.536133H48.8467L44.9579 9.3508C44.5303 9.10212 44.081 8.88717 43.6282 8.70323C42.3139 8.16935 40.9242 7.8275 39.6131 7.29253L36.428 0.101074H35.5076H33.4666H32.3845V0.536133H33.4666V0.799524C31.3994 1.67993 29.6864 3.99342 29.2033 5.95143C28.5001 8.79668 29.6644 12.0131 32.0266 13.7496C32.0351 13.7563 32.0438 13.762 32.0524 13.7678C32.5302 14.1161 33.0489 14.4148 33.4666 14.8313V18.0514H32.3845V18.4864H33.4666H34.6759H35.486H35.5076V18.4851C35.5158 18.4855 35.5235 18.4861 35.5317 18.4864C36.2523 18.2378 36.8553 17.634 37.1115 16.9072C37.443 15.9671 37.2304 14.88 36.6571 14.0646C36.3418 13.6162 35.927 13.2477 35.4578 12.9634C35.4297 12.9514 35.4018 12.9392 35.373 12.9284C34.7811 12.7067 34.1262 12.7758 33.4959 12.8217C32.8655 12.8676 31.6254 12.8069 31.2987 12.5597C30.9259 12.2776 30.7635 11.7714 31.1113 11.2436C31.257 11.0226 31.4783 10.6225 31.4325 10.3617C31.3933 10.1388 31.1499 10.0202 31.0225 9.83313C30.9299 9.69715 31.0262 9.45192 31.3823 9.27609C31.2623 9.23487 30.9285 9.01018 30.9294 8.87397C30.9307 8.68106 31.1313 8.53781 31.2482 8.38436C31.3651 8.23092 31.4846 8.05675 31.4702 7.86436C31.4485 7.57337 31.1468 7.40113 30.8929 7.25736C30.639 7.11359 30.3638 6.86645 30.4411 6.58508C31.372 6.40623 32.2961 5.86432 32.7593 5.03723C33.2226 4.21014 33.1421 3.10538 33.5364 2.24334C33.8242 1.6142 34.2856 0.986261 34.8472 0.536133H35.2456C34.774 1.41618 34.5713 2.4357 34.6788 3.42849C34.6784 3.42731 34.678 3.42616 34.6777 3.42497C34.8584 6.02721 38.0301 8.02084 40.1777 9.35832C41.786 10.3599 44.1649 11.6457 45.2217 13.2183C46.1268 14.5654 45.9897 16.3159 45.0995 18.4864C46.4179 17.1641 47.2306 16.0545 47.5747 15.0135C47.9187 13.9726 47.8486 12.8009 47.3828 11.8084C47.0547 11.1092 46.5526 10.526 45.956 10.0378L48.8165 3.55605V13.4274V18.0514H48.1458V18.4864H48.8165H51.2689H52V13.4274V4.69124V0.101074H51.269Z" fill="#99519D"/>
<rect y="13" width="22" height="1" fill="#99519D"/>
</svg>
