<svg width="17" height="14" viewBox="0 0 17 14" fill="none" xmlns="http://www.w3.org/2000/svg">
<path d="M10.083 10.4633L9.09855 8.24059C8.31534 7.64321 7.47387 7.1174 6.693 6.51458C6.23841 6.16364 5.78536 5.77693 5.39587 5.34793L8.96069 13.4864H9.70284L11.0949 10.3322C10.9209 10.0469 10.7193 9.77553 10.4989 9.52058L10.083 10.4633Z" fill="white"/>
<path d="M16.3351 0H14.6991H14.0442V0.319133H14.5583L11.7057 6.78504C11.3921 6.60262 11.0625 6.44495 10.7304 6.31002C9.76629 5.9184 8.74686 5.66764 7.78515 5.27522L5.44873 0H4.77357H3.27643H2.48267V0.319133H3.27643V0.51234C1.76009 1.15815 0.503529 2.85519 0.149126 4.29146C-0.36669 6.37856 0.48737 8.73797 2.2201 10.0117C2.2264 10.0166 2.23272 10.0208 2.23905 10.025C2.58951 10.2806 2.97004 10.4997 3.27644 10.8052V13.1673H2.48268V13.4864H3.27644H4.16347H4.75771H4.77358V13.4854C4.77957 13.4857 4.78523 13.4861 4.79125 13.4864C5.31985 13.304 5.76213 12.8611 5.95011 12.3279C6.19326 11.6384 6.03731 10.8409 5.61676 10.2428C5.38551 9.91388 5.08125 9.64356 4.73702 9.43503C4.71642 9.42624 4.69594 9.41725 4.67485 9.40935C4.24066 9.24671 3.7603 9.2974 3.2979 9.33109C2.83549 9.36477 1.92581 9.32021 1.68619 9.1389C1.41271 8.93196 1.29362 8.56064 1.54875 8.1735C1.6556 8.01133 1.81795 7.71784 1.78435 7.52655C1.75561 7.36305 1.57705 7.27605 1.48359 7.13884C1.41565 7.0391 1.48628 6.85921 1.74754 6.73023C1.65952 6.7 1.41465 6.53518 1.4153 6.43526C1.41622 6.29376 1.56339 6.18867 1.64916 6.07611C1.73491 5.96356 1.82253 5.8358 1.81201 5.69467C1.79609 5.48122 1.57479 5.35487 1.38854 5.24941C1.20228 5.14395 1.00039 4.96267 1.05709 4.75627C1.73997 4.62508 2.41784 4.22757 2.75763 3.62086C3.09742 3.01416 3.03836 2.20378 3.32764 1.57143C3.53875 1.10994 3.87717 0.649319 4.28917 0.319133H4.58136C4.23545 0.964685 4.08674 1.71254 4.1656 2.44079C4.16536 2.43992 4.16504 2.43908 4.16481 2.4382C4.29738 4.34705 6.6239 5.80946 8.1993 6.79055C9.37906 7.52524 11.1241 8.46843 11.8992 9.622C12.5632 10.6102 12.4626 11.8942 11.8096 13.4864C12.7767 12.5164 13.3729 11.7024 13.6252 10.9389C13.8776 10.1753 13.8262 9.31582 13.4845 8.5878C13.2438 8.0749 12.8755 7.64711 12.4379 7.28898L14.5362 2.53436V9.77535V13.1672H14.0442V13.4864H14.5362H16.3351H16.8714V9.77535V3.36707V0H16.3351Z" fill="white"/>
</svg>
